# Blender v2.77 (sub 0) OBJ File: 'bullet.blend'
# www.blender.org
o Cylinder
v 0.980786 0.195089 2.116933
v 0.980785 -0.195090 0.421921
v 0.923880 0.382682 2.116933
v 0.923880 -0.382683 0.421921
v 0.831470 0.555569 2.116933
v 0.831470 -0.555570 0.421921
v 0.707108 0.707106 2.116933
v 0.707107 -0.707107 0.421921
v 0.555571 0.831469 2.116933
v 0.555570 -0.831470 0.421921
v 0.382684 0.923879 2.116933
v 0.382683 -0.923880 0.421921
v 0.195091 0.980785 2.116933
v 0.000000 0.000000 3.903139
v 0.000001 1.000000 2.116933
v 0.195090 -0.980785 0.421921
v -0.195089 0.980785 2.116933
v 0.000000 -1.000000 0.421921
v -0.382683 0.923880 2.116933
v -0.195090 -0.980785 0.421921
v -0.555570 0.831470 2.116933
v -0.382683 -0.923880 0.421921
v -0.707106 0.707107 2.116933
v -0.555570 -0.831470 0.421921
v -0.831469 0.555571 2.116933
v -0.707107 -0.707107 0.421921
v -0.923879 0.382684 2.116933
v -0.831470 -0.555570 0.421921
v -0.980785 0.195091 2.116933
v -0.923880 -0.382683 0.421921
v -1.000000 0.000000 2.116933
v -0.980785 -0.195090 0.421921
v -0.980785 -0.195090 2.116933
v -1.000000 0.000000 0.421921
v -0.923880 -0.382683 2.116933
v -0.980785 0.195091 0.421921
v -0.831470 -0.555570 2.116933
v -0.923879 0.382684 0.421921
v -0.707107 -0.707107 2.116933
v -0.831469 0.555571 0.421921
v -0.555570 -0.831470 2.116933
v -0.707106 0.707107 0.421921
v -0.382683 -0.923880 2.116933
v -0.555570 0.831470 0.421921
v -0.195090 -0.980785 2.116933
v -0.382683 0.923880 0.421921
v 0.000000 -1.000000 2.116933
v -0.195089 0.980785 0.421921
v 0.195090 -0.980785 2.116933
v 0.000001 1.000000 0.421921
v 0.382683 -0.923880 2.116933
v 0.195091 0.980785 0.421921
v 0.555570 -0.831470 2.116933
v 0.382684 0.923879 0.421921
v 0.707107 -0.707107 2.116933
v 0.555571 0.831469 0.421921
v 0.831470 -0.555570 2.116933
v 0.707108 0.707106 0.421921
v 0.923880 -0.382683 2.116933
v 0.831470 0.555569 0.421921
v 0.980785 -0.195090 2.116933
v 0.923880 0.382682 0.421921
v 1.000000 0.000000 2.116933
v 0.938199 -0.186619 0.353177
v 1.000000 0.000000 0.421921
v 0.980786 0.195089 0.421921
v 0.883764 -0.366067 0.353177
v 0.795367 -0.531447 0.353177
v 0.676404 -0.676404 0.353177
v 0.531447 -0.795367 0.353177
v 0.366067 -0.883764 0.353177
v 0.186619 -0.938199 0.353177
v 0.000000 -0.956580 0.353177
v -0.186619 -0.938199 0.353177
v -0.366067 -0.883764 0.353177
v -0.531447 -0.795367 0.353177
v -0.676404 -0.676404 0.353177
v -0.795367 -0.531447 0.353177
v -0.883764 -0.366067 0.353177
v -0.938199 -0.186619 0.353177
v -0.956580 0.000000 0.353177
v -0.938199 0.186620 0.353177
v -0.883764 0.366068 0.353177
v -0.795367 0.531448 0.353177
v -0.676404 0.676404 0.353177
v -0.531447 0.795367 0.353177
v -0.366066 0.883765 0.353177
v -0.186619 0.938199 0.353177
v 0.000001 0.956580 0.353177
v 0.186620 0.938199 0.353177
v 0.366068 0.883764 0.353177
v 0.531448 0.795366 0.353177
v 0.676405 0.676403 0.353177
v 0.795368 0.531446 0.353177
v 0.883765 0.366066 0.353177
v 0.956580 -0.000000 0.353177
v 0.938200 0.186618 0.353177
v 0.980785 -0.195090 0.294209
v 0.923880 -0.382683 0.294209
v 0.831470 -0.555570 0.294209
v 0.707107 -0.707107 0.294209
v 0.555570 -0.831470 0.294209
v 0.382683 -0.923880 0.294209
v 0.195090 -0.980785 0.294209
v 0.000000 -1.000000 0.294209
v -0.195090 -0.980785 0.294209
v -0.382683 -0.923880 0.294209
v -0.555570 -0.831470 0.294209
v -0.707107 -0.707107 0.294209
v -0.831470 -0.555570 0.294209
v -0.923880 -0.382683 0.294209
v -0.980785 -0.195090 0.294209
v -1.000000 0.000000 0.294209
v -0.980785 0.195091 0.294209
v -0.923879 0.382684 0.294209
v -0.831469 0.555571 0.294209
v -0.707106 0.707107 0.294209
v -0.555570 0.831470 0.294209
v -0.382683 0.923880 0.294209
v -0.195089 0.980785 0.294209
v 0.000001 1.000000 0.294209
v 0.195091 0.980785 0.294209
v 0.382684 0.923879 0.294209
v 0.555571 0.831469 0.294209
v 0.707108 0.707106 0.294209
v 0.831470 0.555569 0.294209
v 0.923880 0.382682 0.294209
v 1.000000 0.000000 0.294209
v 0.980786 0.195089 0.294209
v 0.980785 -0.195090 0.177727
v 0.923880 -0.382683 0.177727
v 0.831470 -0.555570 0.177727
v 0.707107 -0.707107 0.177727
v 0.555570 -0.831470 0.177727
v 0.382683 -0.923880 0.177727
v 0.195090 -0.980785 0.177727
v 0.000000 -1.000000 0.177727
v -0.195090 -0.980785 0.177727
v -0.382683 -0.923880 0.177727
v -0.555570 -0.831470 0.177727
v -0.707107 -0.707107 0.177727
v -0.831470 -0.555570 0.177727
v -0.923880 -0.382683 0.177727
v -0.980785 -0.195090 0.177727
v -1.000000 0.000000 0.177727
v -0.980785 0.195091 0.177727
v -0.923879 0.382684 0.177727
v -0.831469 0.555571 0.177727
v -0.707106 0.707107 0.177727
v -0.555570 0.831470 0.177727
v -0.382683 0.923880 0.177727
v -0.195089 0.980785 0.177727
v 0.000001 1.000000 0.177727
v 0.195091 0.980785 0.177727
v 0.382684 0.923879 0.177727
v 0.555571 0.831469 0.177727
v 0.707108 0.707106 0.177727
v 0.831470 0.555569 0.177727
v 0.923880 0.382682 0.177727
v 1.000000 0.000000 0.177727
v 0.980786 0.195089 0.177727
v 0.972600 0.190213 0.015504
v 0.915694 0.377806 0.015504
v 0.823285 0.550693 0.015504
v 0.698922 0.702230 0.015504
v 0.547386 0.826593 0.015504
v 0.374499 0.919003 0.015504
v 0.186905 0.975909 0.015504
v -0.008186 -0.004876 0.002280
v -0.008185 0.995124 0.015504
v -0.203275 0.975910 0.015504
v -0.390869 0.919004 0.015504
v -0.563755 0.826594 0.015504
v -0.715292 0.702232 0.015504
v -0.839655 0.550695 0.015504
v -0.932065 0.377808 0.015504
v -0.988971 0.190215 0.015504
v -1.008186 -0.004875 0.015504
v -0.988971 -0.199966 0.015504
v -0.932065 -0.387559 0.015504
v -0.839655 -0.560446 0.015504
v -0.715293 -0.711982 0.015504
v -0.563756 -0.836345 0.015504
v -0.390869 -0.928755 0.015504
v -0.203276 -0.985661 0.015504
v -0.008186 -1.004876 0.015504
v 0.186905 -0.985661 0.015504
v 0.374498 -0.928755 0.015504
v 0.547384 -0.836345 0.015504
v 0.698921 -0.711982 0.015504
v 0.823284 -0.560446 0.015504
v 0.915694 -0.387559 0.015504
v 0.972600 -0.199966 0.015504
v 0.991814 -0.004876 0.015504
vn -0.0856 0.8694 0.4867
vn 0.8102 -0.2458 -0.5322
vn -0.4118 0.7704 0.4867
vn -0.8819 0.4714 0.0000
vn -0.8102 -0.2458 -0.5322
vn -0.6753 0.5542 0.4867
vn -0.0980 0.9952 0.0000
vn -0.6545 0.5371 -0.5322
vn -0.8359 0.2536 0.4867
vn 0.9952 0.0980 0.0000
vn -0.7467 0.3991 -0.5322
vn -0.8694 -0.0856 0.4867
vn -0.0980 -0.9952 0.0000
vn -0.3991 0.7467 -0.5322
vn -0.7704 -0.4118 0.4867
vn -0.9952 0.0980 0.0000
vn -0.5371 -0.6545 -0.5322
vn -0.5542 -0.6753 0.4867
vn -0.4118 -0.7704 0.4867
vn -0.2536 -0.8359 0.4867
vn -0.0856 -0.8694 0.4867
vn 0.0856 -0.8694 0.4867
vn 0.2536 -0.8359 0.4867
vn 0.4118 -0.7704 0.4867
vn 0.5542 -0.6753 0.4867
vn 0.6753 -0.5542 0.4867
vn 0.7730 0.6344 0.0000
vn 0.8102 0.2458 -0.5322
vn 0.8359 -0.2536 0.4867
vn -0.8426 -0.0830 -0.5322
vn 0.6344 -0.7730 0.0000
vn 0.2458 0.8102 -0.5322
vn -0.6344 0.7730 0.0000
vn -0.2536 0.8360 0.4867
vn -0.0830 -0.8426 -0.5322
vn -0.5542 0.6753 0.4867
vn -0.8819 -0.4714 0.0000
vn -0.2458 -0.8102 -0.5322
vn -0.7704 0.4118 0.4867
vn -0.2903 -0.9569 0.0000
vn -0.3991 -0.7467 -0.5322
vn -0.8694 0.0856 0.4867
vn 0.0980 0.9952 0.0000
vn -0.5371 0.6545 -0.5322
vn -0.8359 -0.2536 0.4867
vn 0.9569 0.2903 0.0000
vn -0.2458 0.8102 -0.5322
vn -0.6753 -0.5542 0.4867
vn -0.2903 0.9569 0.0000
vn -0.9569 0.2903 0.0000
vn 0.4714 -0.8819 0.0000
vn 0.6344 0.7730 0.0000
vn -0.4714 0.8819 0.0000
vn -0.4714 -0.8819 0.0000
vn 0.9569 -0.2903 0.0000
vn 0.2903 0.9569 0.0000
vn 0.2903 -0.9569 0.0000
vn 0.6545 -0.5371 -0.5322
vn 0.7704 -0.4118 0.4867
vn -0.9569 -0.2903 0.0000
vn 0.5371 -0.6545 -0.5322
vn 0.8694 -0.0856 0.4867
vn 0.7467 0.3991 -0.5322
vn 0.0830 -0.8426 -0.5322
vn 0.8426 0.0830 -0.5322
vn 0.0830 0.8426 -0.5322
vn 0.7467 -0.3991 -0.5322
vn -0.7467 -0.3991 -0.5322
vn -0.0830 0.8426 -0.5322
vn 0.8426 -0.0830 -0.5322
vn -0.6545 -0.5371 -0.5322
vn 0.3991 0.7467 -0.5322
vn 0.8819 -0.4714 0.0000
vn -0.8102 0.2458 -0.5322
vn 0.0856 0.8694 0.4867
vn 0.8819 0.4714 0.0000
vn 0.5371 0.6545 -0.5322
vn 0.2536 0.8359 0.4867
vn -0.6344 -0.7730 0.0000
vn 0.2458 -0.8102 -0.5322
vn 0.4118 0.7704 0.4867
vn -0.9952 -0.0980 0.0000
vn -0.8426 0.0830 -0.5322
vn 0.5542 0.6753 0.4867
vn 0.4714 0.8819 0.0000
vn 0.6545 0.5371 -0.5322
vn 0.6753 0.5542 0.4867
vn 0.0980 -0.9952 0.0000
vn 0.3991 -0.7467 -0.5322
vn 0.7704 0.4118 0.4867
vn -0.7730 0.6344 0.0000
vn -0.7730 -0.6344 0.0000
vn 0.8360 0.2536 0.4867
vn 0.9952 -0.0980 0.0000
vn 0.8694 0.0856 0.4867
vn 0.7730 -0.6344 0.0000
vn -0.6235 -0.5117 0.5911
vn 0.5117 0.6235 0.5911
vn -0.5117 -0.6235 0.5911
vn -0.5117 0.6235 0.5911
vn 0.6235 -0.5117 0.5911
vn -0.6235 0.5117 0.5911
vn 0.7114 -0.3802 0.5911
vn -0.3802 0.7114 0.5911
vn -0.3802 -0.7114 0.5911
vn 0.6235 0.5117 0.5911
vn -0.2341 -0.7719 0.5911
vn 0.7114 0.3802 0.5911
vn 0.8027 -0.0791 0.5911
vn -0.0791 -0.8027 0.5911
vn -0.7719 0.2341 0.5911
vn 0.3802 0.7114 0.5911
vn 0.7719 0.2341 0.5911
vn -0.8027 0.0791 0.5911
vn -0.2341 0.7719 0.5911
vn -0.0791 0.8027 0.5911
vn 0.0791 -0.8027 0.5911
vn 0.8027 0.0791 0.5911
vn 0.2341 -0.7719 0.5911
vn -0.7114 0.3802 0.5911
vn -0.8027 -0.0791 0.5911
vn -0.7719 -0.2341 0.5911
vn -0.7114 -0.3802 0.5911
vn 0.0791 0.8027 0.5911
vn 0.3802 -0.7114 0.5911
vn 0.2341 0.7719 0.5911
vn 0.5117 -0.6235 0.5911
vn 0.7719 -0.2341 0.5911
vn 0.0013 -0.0132 0.9999
vn 0.0063 -0.0117 0.9999
vn 0.0103 -0.0084 0.9999
vn 0.0127 -0.0039 0.9999
vn 0.0132 0.0013 0.9999
vn 0.0117 0.0063 0.9999
vn 0.0084 0.0103 0.9999
vn 0.0063 0.0117 0.9999
vn 0.0039 0.0127 0.9999
vn 0.0013 0.0132 0.9999
vn -0.0013 0.0132 0.9999
vn -0.0039 0.0127 0.9999
vn -0.0063 0.0117 0.9999
vn -0.0084 0.0103 0.9999
vn -0.0103 0.0084 0.9999
vn -0.0127 0.0039 0.9999
vn 0.0039 -0.0127 0.9999
vn 0.0084 -0.0103 0.9999
vn 0.0117 -0.0063 0.9999
vn 0.0132 -0.0013 0.9999
vn 0.0127 0.0039 0.9999
vn 0.0103 0.0084 0.9999
vn -0.0117 0.0063 0.9999
vn -0.0132 0.0013 0.9999
vn -0.0013 -0.0132 0.9999
vn -0.0039 -0.0127 0.9999
vn -0.0063 -0.0117 0.9999
vn -0.0084 -0.0103 0.9999
vn -0.0103 -0.0084 0.9999
vn -0.0117 -0.0063 0.9999
vn -0.0127 -0.0039 0.9999
vn -0.0132 -0.0013 0.9999
vn -0.2900 -0.9560 0.0434
vn -0.4708 -0.8808 0.0502
vn -0.6334 -0.7718 0.0552
vn -0.0980 -0.9946 0.0348
vn 0.0980 -0.9949 0.0250
vn 0.2903 -0.9568 0.0141
vn 0.4714 -0.8819 0.0027
vn 0.6344 -0.7730 -0.0088
vn 0.7729 -0.6343 -0.0199
vn 0.8815 -0.4712 -0.0303
vn 0.9562 -0.2901 -0.0395
vn 0.9941 -0.0979 -0.0472
vn 0.9938 0.0979 -0.0531
vn 0.9554 0.2898 -0.0569
vn 0.8804 0.4706 -0.0586
vn 0.7717 0.6333 -0.0580
vn 0.6334 0.7718 -0.0552
vn 0.4708 0.8808 -0.0502
vn 0.2900 0.9560 -0.0434
vn 0.0980 0.9946 -0.0348
vn -0.0980 0.9949 -0.0250
vn -0.2903 0.9568 -0.0141
vn -0.4714 0.8819 -0.0027
vn -0.6344 0.7730 0.0088
vn -0.7729 0.6343 0.0199
vn -0.8815 0.4712 0.0303
vn -0.9562 0.2901 0.0395
vn -0.9941 0.0979 0.0472
vn -0.9938 -0.0979 0.0531
vn -0.9554 -0.2898 0.0569
vn -0.8804 -0.4706 0.0586
vn -0.7717 -0.6333 0.0580
s off
f 17//1 14//1 15//1
f 2//2 4//2 67//2 64//2
f 21//3 14//3 19//3
f 27//4 25//4 40//4 38//4
f 30//5 32//5 80//5 79//5
f 25//6 14//6 23//6
f 17//7 15//7 50//7 48//7
f 40//8 42//8 85//8 84//8
f 29//9 14//9 27//9
f 1//10 63//10 65//10 66//10
f 38//11 40//11 84//11 83//11
f 33//12 14//12 31//12
f 47//13 45//13 20//13 18//13
f 44//14 46//14 87//14 86//14
f 37//15 14//15 35//15
f 31//16 29//16 36//16 34//16
f 24//17 26//17 77//17 76//17
f 41//18 14//18 39//18
f 43//19 14//19 41//19
f 45//20 14//20 43//20
f 47//21 14//21 45//21
f 49//22 14//22 47//22
f 51//23 14//23 49//23
f 53//24 14//24 51//24
f 55//25 14//25 53//25
f 57//26 14//26 55//26
f 7//27 5//27 60//27 58//27
f 62//28 66//28 97//28 95//28
f 61//29 14//29 59//29
f 32//30 34//30 81//30 80//30
f 55//31 53//31 10//31 8//31
f 52//32 54//32 91//32 90//32
f 23//33 21//33 44//33 42//33
f 19//34 14//34 17//34
f 18//35 20//35 74//35 73//35
f 23//36 14//36 21//36
f 37//37 35//37 30//37 28//37
f 20//38 22//38 75//38 74//38
f 27//39 14//39 25//39
f 45//40 43//40 22//40 20//40
f 22//41 24//41 76//41 75//41
f 31//42 14//42 29//42
f 15//43 13//43 52//43 50//43
f 42//44 44//44 86//44 85//44
f 35//45 14//45 33//45
f 3//46 1//46 66//46 62//46
f 46//47 48//47 88//47 87//47
f 39//48 14//48 37//48
f 19//49 17//49 48//49 46//49
f 29//50 27//50 38//50 36//50
f 53//51 51//51 12//51 10//51
f 9//52 7//52 58//52 56//52
f 21//53 19//53 46//53 44//53
f 43//54 41//54 24//54 22//54
f 61//55 59//55 4//55 2//55
f 13//56 11//56 54//56 52//56
f 51//57 49//57 16//57 12//57
f 6//58 8//58 69//58 68//58
f 59//59 14//59 57//59
f 35//60 33//60 32//60 30//60
f 8//61 10//61 70//61 69//61
f 63//62 14//62 61//62
f 60//63 62//63 95//63 94//63
f 16//64 18//64 73//64 72//64
f 66//65 65//65 96//65 97//65
f 50//66 52//66 90//66 89//66
f 4//67 6//67 68//67 67//67
f 28//68 30//68 79//68 78//68
f 48//69 50//69 89//69 88//69
f 65//70 2//70 64//70 96//70
f 26//71 28//71 78//71 77//71
f 54//72 56//72 92//72 91//72
f 59//73 57//73 6//73 4//73
f 36//74 38//74 83//74 82//74
f 15//75 14//75 13//75
f 5//76 3//76 62//76 60//76
f 56//77 58//77 93//77 92//77
f 13//78 14//78 11//78
f 41//79 39//79 26//79 24//79
f 12//80 16//80 72//80 71//80
f 11//81 14//81 9//81
f 33//82 31//82 34//82 32//82
f 34//83 36//83 82//83 81//83
f 9//84 14//84 7//84
f 11//85 9//85 56//85 54//85
f 58//86 60//86 94//86 93//86
f 7//87 14//87 5//87
f 49//88 47//88 18//88 16//88
f 10//89 12//89 71//89 70//89
f 5//90 14//90 3//90
f 25//91 23//91 42//91 40//91
f 39//92 37//92 28//92 26//92
f 3//93 14//93 1//93
f 63//94 61//94 2//94 65//94
f 1//95 14//95 63//95
f 57//96 55//96 8//96 6//96
f 77//97 78//97 110//97 109//97
f 92//98 93//98 125//98 124//98
f 76//99 77//99 109//99 108//99
f 85//100 86//100 118//100 117//100
f 68//101 69//101 101//101 100//101
f 84//102 85//102 117//102 116//102
f 67//103 68//103 100//103 99//103
f 86//104 87//104 119//104 118//104
f 75//105 76//105 108//105 107//105
f 93//106 94//106 126//106 125//106
f 74//107 75//107 107//107 106//107
f 94//108 95//108 127//108 126//108
f 96//109 64//109 98//109 128//109
f 73//110 74//110 106//110 105//110
f 82//111 83//111 115//111 114//111
f 91//112 92//112 124//112 123//112
f 95//113 97//113 129//113 127//113
f 81//114 82//114 114//114 113//114
f 87//115 88//115 120//115 119//115
f 88//116 89//116 121//116 120//116
f 72//117 73//117 105//117 104//117
f 97//118 96//118 128//118 129//118
f 71//119 72//119 104//119 103//119
f 83//120 84//120 116//120 115//120
f 80//121 81//121 113//121 112//121
f 79//122 80//122 112//122 111//122
f 78//123 79//123 111//123 110//123
f 89//124 90//124 122//124 121//124
f 70//125 71//125 103//125 102//125
f 90//126 91//126 123//126 122//126
f 69//127 70//127 102//127 101//127
f 64//128 67//128 99//128 98//128
f 111//60 112//60 144//60 143//60
f 107//54 108//54 140//54 139//54
f 98//55 99//55 131//55 130//55
f 106//40 107//40 139//40 138//40
f 124//52 125//52 157//52 156//52
f 105//13 106//13 138//13 137//13
f 125//27 126//27 158//27 157//27
f 104//88 105//88 137//88 136//88
f 126//76 127//76 159//76 158//76
f 103//57 104//57 136//57 135//57
f 127//46 129//46 161//46 159//46
f 102//51 103//51 135//51 134//51
f 117//33 118//33 150//33 149//33
f 129//10 128//10 160//10 161//10
f 101//31 102//31 134//31 133//31
f 116//91 117//91 149//91 148//91
f 118//53 119//53 151//53 150//53
f 100//96 101//96 133//96 132//96
f 114//50 115//50 147//50 146//50
f 120//7 121//7 153//7 152//7
f 99//73 100//73 132//73 131//73
f 113//16 114//16 146//16 145//16
f 121//43 122//43 154//43 153//43
f 128//94 98//94 130//94 160//94
f 112//82 113//82 145//82 144//82
f 122//56 123//56 155//56 154//56
f 123//85 124//85 156//85 155//85
f 110//37 111//37 143//37 142//37
f 119//49 120//49 152//49 151//49
f 109//92 110//92 142//92 141//92
f 115//4 116//4 148//4 147//4
f 108//79 109//79 141//79 140//79
f 171//129 169//129 170//129
f 173//130 169//130 172//130
f 175//131 169//131 174//131
f 177//132 169//132 176//132
f 179//133 169//133 178//133
f 181//134 169//134 180//134
f 183//135 169//135 182//135
f 184//136 169//136 183//136
f 185//137 169//137 184//137
f 186//138 169//138 185//138
f 187//139 169//139 186//139
f 188//140 169//140 187//140
f 189//141 169//141 188//141
f 190//142 169//142 189//142
f 191//143 169//143 190//143
f 193//144 169//144 192//144
f 172//145 169//145 171//145
f 174//146 169//146 173//146
f 176//147 169//147 175//147
f 178//148 169//148 177//148
f 180//149 169//149 179//149
f 182//150 169//150 181//150
f 192//151 169//151 191//151
f 194//152 169//152 193//152
f 170//153 169//153 168//153
f 168//154 169//154 167//154
f 167//155 169//155 166//155
f 166//156 169//156 165//156
f 165//157 169//157 164//157
f 164//158 169//158 163//158
f 163//159 169//159 162//159
f 162//160 169//160 194//160
f 139//161 184//161 185//161 138//161
f 140//162 183//162 184//162 139//162
f 141//163 182//163 183//163 140//163
f 138//164 185//164 186//164 137//164
f 137//165 186//165 187//165 136//165
f 136//166 187//166 188//166 135//166
f 135//167 188//167 189//167 134//167
f 134//168 189//168 190//168 133//168
f 133//169 190//169 191//169 132//169
f 132//170 191//170 192//170 131//170
f 131//171 192//171 193//171 130//171
f 130//172 193//172 194//172 160//172
f 160//173 194//173 162//173 161//173
f 161//174 162//174 163//174 159//174
f 159//175 163//175 164//175 158//175
f 158//176 164//176 165//176 157//176
f 157//177 165//177 166//177 156//177
f 156//178 166//178 167//178 155//178
f 155//179 167//179 168//179 154//179
f 154//180 168//180 170//180 153//180
f 153//181 170//181 171//181 152//181
f 152//182 171//182 172//182 151//182
f 151//183 172//183 173//183 150//183
f 150//184 173//184 174//184 149//184
f 149//185 174//185 175//185 148//185
f 148//186 175//186 176//186 147//186
f 147//187 176//187 177//187 146//187
f 146//188 177//188 178//188 145//188
f 145//189 178//189 179//189 144//189
f 144//190 179//190 180//190 143//190
f 143//191 180//191 181//191 142//191
f 142//192 181//192 182//192 141//192
