# Blender v2.77 (sub 0) OBJ File: 'tombStone.blend'
# www.blender.org
o Cube
v 1.000000 0.213891 0.191962
v 1.000000 -0.213891 0.191962
v -1.000000 -0.213891 0.191962
v -1.000000 0.213891 0.191962
v 0.573938 0.125999 2.173764
v 0.573938 -0.126000 2.173764
v -0.573938 -0.125999 2.173764
v -0.573938 0.126000 2.173764
v 1.000000 0.142594 0.191962
v 1.000000 0.071297 0.191962
v 1.000000 -0.000000 0.191962
v 1.000000 -0.071297 0.191962
v 1.000000 -0.142594 0.191962
v 0.666667 0.213891 0.191962
v 0.333333 0.213891 0.191962
v 0.000000 0.213891 0.191962
v -0.333333 0.213891 0.191962
v -0.666666 0.213891 0.191962
v 1.000000 0.213891 0.525296
v 1.000000 0.213891 0.858629
v 1.000000 0.213891 1.191962
v 0.974291 0.213891 1.525296
v 0.819554 0.179921 1.893371
v 0.666667 -0.213891 0.191962
v 0.333333 -0.213891 0.191962
v -0.000000 -0.213891 0.191962
v -0.333333 -0.213891 0.191962
v -0.666667 -0.213891 0.191962
v 1.000000 -0.213891 0.525296
v 1.000000 -0.213891 0.858629
v 1.000000 -0.213891 1.191962
v 0.974290 -0.213891 1.525296
v 0.819553 -0.179921 1.893371
v -1.000000 -0.142594 0.191962
v -1.000000 -0.071297 0.191962
v -1.000000 0.000000 0.191962
v -1.000000 0.071297 0.191962
v -1.000000 0.142594 0.191962
v -1.000000 -0.213891 0.525296
v -1.000000 -0.213891 0.858629
v -1.000000 -0.213891 1.191962
v -0.974291 -0.213891 1.525296
v -0.819554 -0.179921 1.893371
v -1.000000 0.213891 0.525296
v -1.000000 0.213891 0.858629
v -1.000000 0.213891 1.191962
v -0.974290 0.213891 1.525296
v -0.819553 0.179921 1.893371
v 0.573938 0.084000 2.173764
v 0.573938 0.042000 2.173764
v 0.573938 -0.000000 2.173764
v 0.573938 -0.042000 2.173764
v 0.573938 -0.084000 2.173764
v 0.382626 0.125999 2.230422
v 0.191313 0.125999 2.230422
v 0.000000 0.133368 2.236637
v -0.191313 0.126000 2.230422
v -0.382625 0.126000 2.230422
v 0.382625 -0.126000 2.230422
v 0.191312 -0.126000 2.230422
v -0.000000 -0.133368 2.236637
v -0.191313 -0.126000 2.230422
v -0.382626 -0.126000 2.230422
v -0.573938 -0.084000 2.173764
v -0.573938 -0.042000 2.173764
v -0.573938 0.000000 2.173764
v -0.573938 0.042000 2.173764
v -0.573938 0.084000 2.173764
v 0.546369 0.179921 1.893371
v 0.273185 0.179921 1.893371
v 0.000000 0.213891 1.858629
v -0.273184 0.179921 1.893371
v -0.546369 0.179921 1.893371
v 0.649527 0.213891 1.525296
v 0.333334 0.213891 1.525296
v 0.000000 0.213891 1.525296
v -0.333333 0.213891 1.525296
v -0.649527 0.213891 1.525296
v 0.666667 0.213891 1.191962
v 0.333334 0.213891 1.191962
v 0.000000 0.213891 1.191962
v -0.333333 0.213891 1.191962
v -0.666667 0.213891 1.191962
v 0.666667 0.213891 0.858629
v 0.333334 0.213891 0.858629
v 0.000000 0.213891 0.858629
v -0.333333 0.213891 0.858629
v -0.666666 0.213891 0.858629
v 0.666667 0.213891 0.525296
v 0.333333 0.213891 0.525296
v 0.000000 0.213891 0.525296
v -0.333333 0.213891 0.525296
v -0.666666 0.213891 0.525296
v -1.000000 -0.142594 0.525296
v -1.000000 -0.071297 0.525296
v -1.000000 0.000000 0.525296
v -1.000000 0.071297 0.525296
v -1.000000 0.142594 0.525296
v -1.000000 -0.142594 0.858629
v -1.000000 -0.071297 0.858629
v -1.000000 0.000000 0.858629
v -1.000000 0.071297 0.858629
v -1.000000 0.142594 0.858629
v -1.000000 -0.142594 1.191962
v -1.000000 -0.071297 1.191962
v -1.000000 0.000000 1.191962
v -1.000000 0.071297 1.191962
v -1.000000 0.142594 1.191962
v -0.974291 -0.142594 1.525296
v -0.974291 -0.071297 1.525296
v -0.974291 0.000000 1.525296
v -0.974291 0.071297 1.525296
v -0.974290 0.142594 1.525296
v -0.819554 -0.119947 1.893371
v -0.819553 -0.059973 1.893371
v -0.819553 0.000000 1.893371
v -0.819553 0.059974 1.893371
v -0.819553 0.119947 1.893371
v 0.760013 -0.132986 0.329241
v 0.380006 -0.132986 0.329241
v -0.000000 -0.132986 0.329241
v -0.380007 -0.132986 0.329241
v -0.760013 -0.132986 0.329241
v 0.760013 -0.132986 0.709248
v 0.380006 -0.132986 0.709248
v -0.000000 -0.132986 0.709248
v -0.380007 -0.132986 0.709248
v -0.760013 -0.132986 0.709248
v 0.760013 -0.132986 1.089254
v 0.380006 -0.132986 1.089254
v -0.000000 -0.132986 1.089254
v -0.380007 -0.132986 1.089254
v -0.760014 -0.132986 1.089254
v 0.740473 -0.132986 1.469261
v 0.380006 -0.132986 1.469261
v -0.000000 -0.132986 1.469261
v -0.380007 -0.132986 1.469261
v -0.740474 -0.132986 1.469261
v 0.622871 -0.094260 1.888874
v 0.311435 -0.094260 1.888874
v -0.000000 -0.132986 1.849267
v -0.311436 -0.094259 1.888874
v -0.622872 -0.094259 1.888874
v 1.000000 0.142594 0.525296
v 1.000000 0.071297 0.525296
v 1.000000 -0.000000 0.525296
v 1.000000 -0.071297 0.525296
v 1.000000 -0.142594 0.525296
v 1.000000 0.142594 0.858629
v 1.000000 0.071297 0.858629
v 1.000000 -0.000000 0.858629
v 1.000000 -0.071297 0.858629
v 1.000000 -0.142594 0.858629
v 1.000000 0.142594 1.191962
v 1.000000 0.071297 1.191962
v 1.000000 -0.000000 1.191962
v 1.000000 -0.071297 1.191962
v 1.000000 -0.142594 1.191962
v 0.974291 0.142594 1.525296
v 0.974291 0.071297 1.525296
v 0.974291 -0.000000 1.525296
v 0.974290 -0.071297 1.525296
v 0.974290 -0.142594 1.525296
v 0.819554 0.119947 1.893371
v 0.819553 0.059973 1.893371
v 0.819553 -0.000000 1.893371
v 0.819553 -0.059974 1.893371
v 0.819553 -0.119947 1.893371
v 0.382626 0.084000 2.230422
v 0.382625 0.042000 2.230422
v 0.382625 -0.000000 2.230422
v 0.382625 -0.042000 2.230422
v 0.382625 -0.084000 2.230422
v 0.191313 0.084000 2.230422
v 0.191313 0.042000 2.230422
v 0.191313 -0.000000 2.230422
v 0.191312 -0.042000 2.230422
v 0.191312 -0.084000 2.230422
v 0.000000 0.088912 2.236637
v -0.000000 0.044456 2.236637
v -0.000000 -0.000000 2.236637
v -0.000000 -0.044456 2.236637
v -0.000000 -0.088912 2.236637
v -0.191313 0.084000 2.230422
v -0.191313 0.042000 2.230422
v -0.191313 -0.000000 2.230422
v -0.191313 -0.042000 2.230422
v -0.191313 -0.084000 2.230422
v -0.382625 0.084000 2.230422
v -0.382626 0.042000 2.230422
v -0.382626 0.000000 2.230422
v -0.382626 -0.042000 2.230422
v -0.382626 -0.084000 2.230422
v 0.666667 0.142594 0.191962
v 0.333333 0.142594 0.191962
v 0.000000 0.142594 0.191962
v -0.333333 0.142594 0.191962
v -0.666667 0.142594 0.191962
v 0.666667 0.071297 0.191962
v 0.333333 0.071297 0.191962
v 0.000000 0.071297 0.191962
v -0.333333 0.071297 0.191962
v -0.666667 0.071297 0.191962
v 0.666667 -0.000000 0.191962
v 0.333333 -0.000000 0.191962
v 0.000000 0.000000 0.191962
v -0.333333 0.000000 0.191962
v -0.666667 0.000000 0.191962
v 0.666667 -0.071297 0.191962
v 0.333333 -0.071297 0.191962
v -0.000000 -0.071297 0.191962
v -0.333333 -0.071297 0.191962
v -0.666667 -0.071297 0.191962
v 0.666667 -0.142594 0.191962
v 0.333333 -0.142594 0.191962
v -0.000000 -0.142594 0.191962
v -0.333333 -0.142594 0.191962
v -0.666667 -0.142594 0.191962
vt 0.8030 0.9147
vt 0.8208 0.9147
vt 0.8208 0.9968
vt 0.8030 0.9968
vt 0.0543 0.5513
vt 0.0543 0.5041
vt 0.0648 0.5041
vt 0.0648 0.5513
vt 0.6304 0.9255
vt 0.6394 1.0000
vt 0.6289 1.0000
vt 0.6154 0.9255
vt 0.9057 0.0850
vt 0.8457 0.0014
vt 0.8935 0.0154
vt 0.9549 0.0851
vt 0.5235 0.9255
vt 0.5325 1.0000
vt 0.5220 1.0000
vt 0.5085 0.9255
vt 0.0833 0.4221
vt 0.0833 0.5041
vt 0.0000 0.5041
vt 0.0000 0.4221
vt 0.1543 0.0015
vt 0.1134 0.0850
vt 0.0451 0.0850
vt 0.1065 0.0154
vt 0.0876 0.1759
vt 0.0064 0.1759
vt 0.0833 0.2580
vt 0.0000 0.2580
vt 0.0833 0.3400
vt 0.0000 0.3400
vt 0.3935 0.0154
vt 0.4549 0.0850
vt 0.3866 0.0850
vt 0.3457 0.0015
vt 0.3183 0.0850
vt 0.2978 0.0015
vt 0.2500 0.0939
vt 0.2500 0.0000
vt 0.1817 0.0850
vt 0.2022 0.0015
vt 0.4936 0.1759
vt 0.4124 0.1759
vt 0.3333 0.1759
vt 0.2500 0.1759
vt 0.1667 0.1759
vt 0.5000 0.2580
vt 0.4167 0.2580
vt 0.3333 0.2580
vt 0.2500 0.2580
vt 0.1667 0.2580
vt 0.5000 0.3400
vt 0.4167 0.3400
vt 0.3333 0.3400
vt 0.2500 0.3400
vt 0.1667 0.3400
vt 0.5000 0.4221
vt 0.4167 0.4221
vt 0.3333 0.4221
vt 0.2500 0.4221
vt 0.1667 0.4221
vt 0.5000 0.5041
vt 0.4167 0.5041
vt 0.3333 0.5041
vt 0.2500 0.5041
vt 0.1667 0.5041
vt 0.5178 0.5040
vt 0.5178 0.5858
vt 0.5000 0.5858
vt 0.5000 0.5040
vt 0.5178 0.6676
vt 0.5000 0.6676
vt 0.5178 0.7493
vt 0.5000 0.7493
vt 0.5178 0.8317
vt 0.5000 0.8317
vt 0.6069 0.5040
vt 0.6069 0.5858
vt 0.5891 0.5858
vt 0.5891 0.5040
vt 0.5713 0.5858
vt 0.5713 0.5040
vt 0.5535 0.5858
vt 0.5535 0.5040
vt 0.5356 0.5858
vt 0.5356 0.5040
vt 0.6069 0.6676
vt 0.5891 0.6676
vt 0.5713 0.6676
vt 0.5535 0.6676
vt 0.5356 0.6676
vt 0.6069 0.7493
vt 0.5891 0.7493
vt 0.5713 0.7493
vt 0.5535 0.7493
vt 0.5356 0.7493
vt 0.6069 0.8317
vt 0.5891 0.8317
vt 0.5713 0.8317
vt 0.5535 0.8317
vt 0.5356 0.8317
vt 0.5985 0.9255
vt 0.5835 0.9255
vt 0.5685 0.9255
vt 0.5535 0.9255
vt 0.5385 0.9255
vt 0.5850 1.0000
vt 0.5745 1.0000
vt 0.5640 1.0000
vt 0.5535 1.0000
vt 0.5430 1.0000
vt 0.9167 0.5040
vt 0.9400 0.4691
vt 1.0000 0.4221
vt 1.0000 0.5040
vt 0.9400 0.3756
vt 1.0000 0.3401
vt 0.9400 0.2822
vt 1.0000 0.2581
vt 0.9351 0.1887
vt 0.9936 0.1761
vt 0.5000 0.5040
vt 0.5000 0.4221
vt 0.5600 0.4691
vt 0.5833 0.5040
vt 0.6550 0.4691
vt 0.6667 0.5040
vt 0.7500 0.4691
vt 0.7500 0.5040
vt 0.8450 0.4691
vt 0.8333 0.5040
vt 0.5000 0.3401
vt 0.5600 0.3756
vt 0.6550 0.3756
vt 0.7500 0.3756
vt 0.8450 0.3756
vt 0.5000 0.2581
vt 0.5600 0.2822
vt 0.6550 0.2822
vt 0.7500 0.2822
vt 0.8450 0.2822
vt 0.5064 0.1761
vt 0.5649 0.1887
vt 0.6550 0.1887
vt 0.7500 0.1887
vt 0.8450 0.1887
vt 0.5451 0.0851
vt 0.5943 0.0850
vt 0.6721 0.0850
vt 0.7500 0.0953
vt 0.8279 0.0850
vt 0.6065 0.0154
vt 0.6543 0.0014
vt 0.7022 0.0014
vt 0.7500 0.0000
vt 0.7978 0.0014
vt 0.6248 0.5040
vt 0.6248 0.5858
vt 0.6069 0.5858
vt 0.6069 0.5040
vt 0.6248 0.6676
vt 0.6069 0.6676
vt 0.6248 0.7493
vt 0.6069 0.7493
vt 0.6248 0.8317
vt 0.6069 0.8317
vt 0.7139 0.5040
vt 0.7139 0.5858
vt 0.6961 0.5858
vt 0.6961 0.5040
vt 0.6782 0.5858
vt 0.6782 0.5040
vt 0.6604 0.5858
vt 0.6604 0.5040
vt 0.6426 0.5858
vt 0.6426 0.5040
vt 0.7139 0.6676
vt 0.6961 0.6676
vt 0.6782 0.6676
vt 0.6604 0.6676
vt 0.6426 0.6676
vt 0.7139 0.7493
vt 0.6961 0.7493
vt 0.6782 0.7493
vt 0.6604 0.7493
vt 0.6426 0.7493
vt 0.7139 0.8317
vt 0.6961 0.8317
vt 0.6782 0.8317
vt 0.6604 0.8317
vt 0.6426 0.8317
vt 0.7054 0.9255
vt 0.6904 0.9255
vt 0.6754 0.9255
vt 0.6604 0.9255
vt 0.6454 0.9255
vt 0.6919 1.0000
vt 0.6814 1.0000
vt 0.6709 1.0000
vt 0.6604 1.0000
vt 0.6499 1.0000
vt 0.0543 0.7869
vt 0.0543 0.7398
vt 0.0648 0.7398
vt 0.0648 0.7869
vt 0.0543 0.6927
vt 0.0648 0.6927
vt 0.0556 0.6455
vt 0.0667 0.6455
vt 0.0543 0.5984
vt 0.0648 0.5984
vt 0.0018 0.7869
vt 0.0018 0.7398
vt 0.0123 0.7398
vt 0.0123 0.7869
vt 0.0228 0.7398
vt 0.0228 0.7869
vt 0.0333 0.7398
vt 0.0333 0.7869
vt 0.0438 0.7398
vt 0.0438 0.7869
vt 0.0018 0.6927
vt 0.0123 0.6927
vt 0.0228 0.6927
vt 0.0333 0.6927
vt 0.0438 0.6927
vt 0.0000 0.6455
vt 0.0111 0.6455
vt 0.0222 0.6455
vt 0.0333 0.6455
vt 0.0445 0.6455
vt 0.0018 0.5984
vt 0.0123 0.5984
vt 0.0228 0.5984
vt 0.0333 0.5984
vt 0.0438 0.5984
vt 0.0018 0.5513
vt 0.0123 0.5513
vt 0.0228 0.5513
vt 0.0333 0.5513
vt 0.0438 0.5513
vt 0.0018 0.5041
vt 0.0123 0.5041
vt 0.0228 0.5041
vt 0.0333 0.5041
vt 0.0438 0.5041
vt 0.7139 0.9147
vt 0.7317 0.9147
vt 0.7317 0.9968
vt 0.7139 0.9968
vt 0.7495 0.9147
vt 0.7495 0.9968
vt 0.7674 0.9147
vt 0.7674 0.9968
vt 0.7852 0.9147
vt 0.7852 0.9968
vt 0.7317 0.5040
vt 0.7317 0.5862
vt 0.7139 0.5862
vt 0.7317 0.6683
vt 0.7139 0.6683
vt 0.7317 0.7504
vt 0.7139 0.7504
vt 0.7317 0.8325
vt 0.7139 0.8325
vt 0.7495 0.5040
vt 0.7495 0.5862
vt 0.7495 0.6683
vt 0.7495 0.7504
vt 0.7495 0.8325
vt 0.7674 0.5040
vt 0.7674 0.5862
vt 0.7674 0.6683
vt 0.7674 0.7504
vt 0.7674 0.8325
vt 0.7852 0.5040
vt 0.7852 0.5862
vt 0.7852 0.6683
vt 0.7852 0.7504
vt 0.7852 0.8325
vt 0.8030 0.5040
vt 0.8030 0.5862
vt 0.8030 0.6683
vt 0.8030 0.7504
vt 0.8030 0.8325
vt 0.8208 0.5040
vt 0.8208 0.5862
vt 0.8208 0.6683
vt 0.8208 0.7504
vt 0.8208 0.8325
vn 0.0000 0.0000 -1.0000
vn -0.2840 0.0000 0.9588
vn 0.7522 -0.0000 0.6589
vn 0.2320 -0.9615 -0.1470
vn -0.7522 0.0000 0.6589
vn 0.0000 1.0000 0.0000
vn -0.0228 0.9822 0.1866
vn 0.0000 0.9958 0.0919
vn 0.0228 0.9822 0.1866
vn 0.0000 0.9874 0.1580
vn 0.0752 0.9784 0.1926
vn -0.0752 0.9784 0.1926
vn 0.0528 0.9972 0.0528
vn -0.0528 0.9972 0.0528
vn -1.0000 0.0000 -0.0000
vn -0.9970 0.0000 0.0769
vn -0.9219 0.0000 0.3875
vn 0.2052 -0.9570 0.2052
vn 0.3195 -0.9476 0.0000
vn 0.3171 -0.9482 -0.0201
vn 0.3561 -0.9337 -0.0369
vn -0.2052 -0.9570 0.2052
vn -0.0000 -0.8615 0.5077
vn -0.3195 -0.9476 -0.0000
vn -0.0000 -1.0000 -0.0000
vn -0.3171 -0.9482 -0.0201
vn -0.3561 -0.9337 -0.0369
vn -0.0000 -0.9958 0.0919
vn 0.0528 -0.9972 0.0528
vn -0.0528 -0.9972 0.0528
vn -0.2320 -0.9615 -0.1470
vn -0.0000 -0.9957 -0.0925
vn 0.0931 -0.9952 -0.0285
vn -0.0931 -0.9952 -0.0285
vn 1.0000 0.0000 0.0000
vn 0.9970 -0.0000 0.0769
vn 0.9219 -0.0000 0.3875
vn 0.2840 -0.0000 0.9588
vn -0.0000 0.0000 1.0000
vn 0.0325 -0.0000 0.9995
vn -0.0325 0.0000 0.9995
s off
f 218/1/1 28/2/1 3/3/1 34/4/1
f 193/5/2 64/6/2 7/7/2 63/8/2
f 168/9/3 53/10/3 6/11/3 33/12/3
f 143/13/4 63/14/4 7/15/4 43/16/4
f 118/17/5 68/18/5 8/19/5 48/20/5
f 93/21/6 18/22/6 4/23/6 44/24/6
f 58/25/7 73/26/7 48/27/7 8/28/7
f 73/26/8 78/29/8 47/30/8 48/27/8
f 78/29/6 83/31/6 46/32/6 47/30/6
f 83/31/6 88/33/6 45/34/6 46/32/6
f 88/33/6 93/21/6 44/24/6 45/34/6
f 5/35/9 23/36/9 69/37/9 54/38/9
f 54/38/10 69/37/10 70/39/10 55/40/10
f 55/40/11 70/39/11 71/41/11 56/42/11
f 56/42/12 71/41/12 72/43/12 57/44/12
f 57/44/10 72/43/10 73/26/10 58/25/10
f 23/36/8 22/45/8 74/46/8 69/37/8
f 69/37/8 74/46/8 75/47/8 70/39/8
f 70/39/13 75/47/13 76/48/13 71/41/13
f 71/41/14 76/48/14 77/49/14 72/43/14
f 72/43/8 77/49/8 78/29/8 73/26/8
f 22/45/6 21/50/6 79/51/6 74/46/6
f 74/46/6 79/51/6 80/52/6 75/47/6
f 75/47/6 80/52/6 81/53/6 76/48/6
f 76/48/6 81/53/6 82/54/6 77/49/6
f 77/49/6 82/54/6 83/31/6 78/29/6
f 21/50/6 20/55/6 84/56/6 79/51/6
f 79/51/6 84/56/6 85/57/6 80/52/6
f 80/52/6 85/57/6 86/58/6 81/53/6
f 81/53/6 86/58/6 87/59/6 82/54/6
f 82/54/6 87/59/6 88/33/6 83/31/6
f 20/55/6 19/60/6 89/61/6 84/56/6
f 84/56/6 89/61/6 90/62/6 85/57/6
f 85/57/6 90/62/6 91/63/6 86/58/6
f 86/58/6 91/63/6 92/64/6 87/59/6
f 87/59/6 92/64/6 93/21/6 88/33/6
f 19/60/6 1/65/6 14/66/6 89/61/6
f 89/61/6 14/66/6 15/67/6 90/62/6
f 90/62/6 15/67/6 16/68/6 91/63/6
f 91/63/6 16/68/6 17/69/6 92/64/6
f 92/64/6 17/69/6 18/22/6 93/21/6
f 38/70/15 98/71/15 44/72/15 4/73/15
f 98/71/15 103/74/15 45/75/15 44/72/15
f 103/74/15 108/76/15 46/77/15 45/75/15
f 108/76/16 113/78/16 47/79/16 46/77/16
f 113/78/17 118/17/17 48/20/17 47/79/17
f 3/80/15 39/81/15 94/82/15 34/83/15
f 34/83/15 94/82/15 95/84/15 35/85/15
f 35/85/15 95/84/15 96/86/15 36/87/15
f 36/87/15 96/86/15 97/88/15 37/89/15
f 37/89/15 97/88/15 98/71/15 38/70/15
f 39/81/15 40/90/15 99/91/15 94/82/15
f 94/82/15 99/91/15 100/92/15 95/84/15
f 95/84/15 100/92/15 101/93/15 96/86/15
f 96/86/15 101/93/15 102/94/15 97/88/15
f 97/88/15 102/94/15 103/74/15 98/71/15
f 40/90/15 41/95/15 104/96/15 99/91/15
f 99/91/15 104/96/15 105/97/15 100/92/15
f 100/92/15 105/97/15 106/98/15 101/93/15
f 101/93/15 106/98/15 107/99/15 102/94/15
f 102/94/15 107/99/15 108/76/15 103/74/15
f 41/95/16 42/100/16 109/101/16 104/96/16
f 104/96/16 109/101/16 110/102/16 105/97/16
f 105/97/16 110/102/16 111/103/16 106/98/16
f 106/98/16 111/103/16 112/104/16 107/99/16
f 107/99/16 112/104/16 113/78/16 108/76/16
f 42/100/17 43/105/17 114/106/17 109/101/17
f 109/101/17 114/106/17 115/107/17 110/102/17
f 110/102/17 115/107/17 116/108/17 111/103/17
f 111/103/17 116/108/17 117/109/17 112/104/17
f 112/104/17 117/109/17 118/17/17 113/78/17
f 43/105/5 7/110/5 64/111/5 114/106/5
f 114/106/5 64/111/5 65/112/5 115/107/5
f 115/107/5 65/112/5 66/113/5 116/108/5
f 116/108/5 66/113/5 67/114/5 117/109/5
f 117/109/5 67/114/5 68/18/5 118/17/5
f 28/115/18 123/116/18 39/117/18 3/118/18
f 123/116/19 128/119/19 40/120/19 39/117/19
f 128/119/19 133/121/19 41/122/19 40/120/19
f 133/121/20 138/123/20 42/124/20 41/122/20
f 138/123/21 143/13/21 43/16/21 42/124/21
f 2/125/22 29/126/22 119/127/22 24/128/22
f 24/128/23 119/127/23 120/129/23 25/130/23
f 25/130/23 120/129/23 121/131/23 26/132/23
f 26/132/23 121/131/23 122/133/23 27/134/23
f 27/134/23 122/133/23 123/116/23 28/115/23
f 29/126/24 30/135/24 124/136/24 119/127/24
f 119/127/25 124/136/25 125/137/25 120/129/25
f 120/129/25 125/137/25 126/138/25 121/131/25
f 121/131/25 126/138/25 127/139/25 122/133/25
f 122/133/25 127/139/25 128/119/25 123/116/25
f 30/135/24 31/140/24 129/141/24 124/136/24
f 124/136/25 129/141/25 130/142/25 125/137/25
f 125/137/25 130/142/25 131/143/25 126/138/25
f 126/138/25 131/143/25 132/144/25 127/139/25
f 127/139/25 132/144/25 133/121/25 128/119/25
f 31/140/26 32/145/26 134/146/26 129/141/26
f 129/141/25 134/146/25 135/147/25 130/142/25
f 130/142/25 135/147/25 136/148/25 131/143/25
f 131/143/25 136/148/25 137/149/25 132/144/25
f 132/144/25 137/149/25 138/123/25 133/121/25
f 32/145/27 33/150/27 139/151/27 134/146/27
f 134/146/28 139/151/28 140/152/28 135/147/28
f 135/147/29 140/152/29 141/153/29 136/148/29
f 136/148/30 141/153/30 142/154/30 137/149/30
f 137/149/28 142/154/28 143/13/28 138/123/28
f 33/150/31 6/155/31 59/156/31 139/151/31
f 139/151/32 59/156/32 60/157/32 140/152/32
f 140/152/33 60/157/33 61/158/33 141/153/33
f 141/153/34 61/158/34 62/159/34 142/154/34
f 142/154/32 62/159/32 63/14/32 143/13/32
f 13/160/35 148/161/35 29/162/35 2/163/35
f 148/161/35 153/164/35 30/165/35 29/162/35
f 153/164/35 158/166/35 31/167/35 30/165/35
f 158/166/36 163/168/36 32/169/36 31/167/36
f 163/168/37 168/9/37 33/12/37 32/169/37
f 1/170/35 19/171/35 144/172/35 9/173/35
f 9/173/35 144/172/35 145/174/35 10/175/35
f 10/175/35 145/174/35 146/176/35 11/177/35
f 11/177/35 146/176/35 147/178/35 12/179/35
f 12/179/35 147/178/35 148/161/35 13/160/35
f 19/171/35 20/180/35 149/181/35 144/172/35
f 144/172/35 149/181/35 150/182/35 145/174/35
f 145/174/35 150/182/35 151/183/35 146/176/35
f 146/176/35 151/183/35 152/184/35 147/178/35
f 147/178/35 152/184/35 153/164/35 148/161/35
f 20/180/35 21/185/35 154/186/35 149/181/35
f 149/181/35 154/186/35 155/187/35 150/182/35
f 150/182/35 155/187/35 156/188/35 151/183/35
f 151/183/35 156/188/35 157/189/35 152/184/35
f 152/184/35 157/189/35 158/166/35 153/164/35
f 21/185/36 22/190/36 159/191/36 154/186/36
f 154/186/36 159/191/36 160/192/36 155/187/36
f 155/187/36 160/192/36 161/193/36 156/188/36
f 156/188/36 161/193/36 162/194/36 157/189/36
f 157/189/36 162/194/36 163/168/36 158/166/36
f 22/190/37 23/195/37 164/196/37 159/191/37
f 159/191/37 164/196/37 165/197/37 160/192/37
f 160/192/37 165/197/37 166/198/37 161/193/37
f 161/193/37 166/198/37 167/199/37 162/194/37
f 162/194/37 167/199/37 168/9/37 163/168/37
f 23/195/3 5/200/3 49/201/3 164/196/3
f 164/196/3 49/201/3 50/202/3 165/197/3
f 165/197/3 50/202/3 51/203/3 166/198/3
f 166/198/3 51/203/3 52/204/3 167/199/3
f 167/199/3 52/204/3 53/10/3 168/9/3
f 53/205/38 173/206/38 59/207/38 6/208/38
f 173/206/39 178/209/39 60/210/39 59/207/39
f 178/209/40 183/211/40 61/212/40 60/210/40
f 183/211/41 188/213/41 62/214/41 61/212/41
f 188/213/39 193/5/39 63/8/39 62/214/39
f 5/215/38 54/216/38 169/217/38 49/218/38
f 49/218/38 169/217/38 170/219/38 50/220/38
f 50/220/38 170/219/38 171/221/38 51/222/38
f 51/222/38 171/221/38 172/223/38 52/224/38
f 52/224/38 172/223/38 173/206/38 53/205/38
f 54/216/39 55/225/39 174/226/39 169/217/39
f 169/217/39 174/226/39 175/227/39 170/219/39
f 170/219/39 175/227/39 176/228/39 171/221/39
f 171/221/39 176/228/39 177/229/39 172/223/39
f 172/223/39 177/229/39 178/209/39 173/206/39
f 55/225/40 56/230/40 179/231/40 174/226/40
f 174/226/40 179/231/40 180/232/40 175/227/40
f 175/227/40 180/232/40 181/233/40 176/228/40
f 176/228/40 181/233/40 182/234/40 177/229/40
f 177/229/40 182/234/40 183/211/40 178/209/40
f 56/230/41 57/235/41 184/236/41 179/231/41
f 179/231/41 184/236/41 185/237/41 180/232/41
f 180/232/41 185/237/41 186/238/41 181/233/41
f 181/233/41 186/238/41 187/239/41 182/234/41
f 182/234/41 187/239/41 188/213/41 183/211/41
f 57/235/39 58/240/39 189/241/39 184/236/39
f 184/236/39 189/241/39 190/242/39 185/237/39
f 185/237/39 190/242/39 191/243/39 186/238/39
f 186/238/39 191/243/39 192/244/39 187/239/39
f 187/239/39 192/244/39 193/5/39 188/213/39
f 58/240/2 8/245/2 68/246/2 189/241/2
f 189/241/2 68/246/2 67/247/2 190/242/2
f 190/242/2 67/247/2 66/248/2 191/243/2
f 191/243/2 66/248/2 65/249/2 192/244/2
f 192/244/2 65/249/2 64/6/2 193/5/2
f 18/250/1 198/251/1 38/252/1 4/253/1
f 198/251/1 203/254/1 37/255/1 38/252/1
f 203/254/1 208/256/1 36/257/1 37/255/1
f 208/256/1 213/258/1 35/259/1 36/257/1
f 213/258/1 218/1/1 34/4/1 35/259/1
f 1/170/1 9/260/1 194/261/1 14/262/1
f 14/262/1 194/261/1 195/263/1 15/264/1
f 15/264/1 195/263/1 196/265/1 16/266/1
f 16/266/1 196/265/1 197/267/1 17/268/1
f 17/268/1 197/267/1 198/251/1 18/250/1
f 9/260/1 10/269/1 199/270/1 194/261/1
f 194/261/1 199/270/1 200/271/1 195/263/1
f 195/263/1 200/271/1 201/272/1 196/265/1
f 196/265/1 201/272/1 202/273/1 197/267/1
f 197/267/1 202/273/1 203/254/1 198/251/1
f 10/269/1 11/274/1 204/275/1 199/270/1
f 199/270/1 204/275/1 205/276/1 200/271/1
f 200/271/1 205/276/1 206/277/1 201/272/1
f 201/272/1 206/277/1 207/278/1 202/273/1
f 202/273/1 207/278/1 208/256/1 203/254/1
f 11/274/1 12/279/1 209/280/1 204/275/1
f 204/275/1 209/280/1 210/281/1 205/276/1
f 205/276/1 210/281/1 211/282/1 206/277/1
f 206/277/1 211/282/1 212/283/1 207/278/1
f 207/278/1 212/283/1 213/258/1 208/256/1
f 12/279/1 13/284/1 214/285/1 209/280/1
f 209/280/1 214/285/1 215/286/1 210/281/1
f 210/281/1 215/286/1 216/287/1 211/282/1
f 211/282/1 216/287/1 217/288/1 212/283/1
f 212/283/1 217/288/1 218/1/1 213/258/1
f 13/284/1 2/289/1 24/290/1 214/285/1
f 214/285/1 24/290/1 25/291/1 215/286/1
f 215/286/1 25/291/1 26/292/1 216/287/1
f 216/287/1 26/292/1 27/293/1 217/288/1
f 217/288/1 27/293/1 28/2/1 218/1/1
